<?xml version="1.0" encoding="UTF-8"?>
<svg width="450px" height="321px" viewBox="0 0 450 321" version="1.1" xmlns="http://www.w3.org/2000/svg" xmlns:xlink="http://www.w3.org/1999/xlink">
    <!-- Generator: Sketch 43.2 (39069) - http://www.bohemiancoding.com/sketch -->
    <title>waves</title>
    <desc>Created with Sketch.</desc>
    <defs>
        <path d="M8.09178209,347.796812 C8.09178209,347.796812 -43.1965887,302.891643 112.47425,316.257321 C194.642925,323.312207 246.806558,283.212208 301.296205,274.517 C331.131827,269.755968 373.56078,287.974618 431.18911,288.867763 C488.817439,289.760908 534.10745,263.553171 563.156981,263.553171 C592.206513,263.553171 632.174324,292.067357 669.911538,279.744766 C692.945607,272.223293 712.969565,229.108727 731.644264,229.108727 C750.318963,229.108727 776.187364,265.500572 793.478266,279.744766 C837.857242,316.304032 855.304708,296.697378 875.646941,279.744766 C891.43204,266.589934 923.629244,229.108727 955.740649,229.108727 C1019.64962,229.108727 1008.29491,308.925228 1111.49022,347.796812 C1301.52224,419.378027 993.545317,375.338199 993.545317,375.338199 L514.926996,386.39119 L8.09178209,347.796812 Z" id="path-1"></path>
        <filter x="-6.6%" y="-33.8%" width="113.3%" height="197.7%" filterUnits="objectBoundingBox" id="filter-2">
            <feOffset dx="0" dy="24" in="SourceAlpha" result="shadowOffsetOuter1"></feOffset>
            <feGaussianBlur stdDeviation="22" in="shadowOffsetOuter1" result="shadowBlurOuter1"></feGaussianBlur>
            <feColorMatrix values="0 0 0 0 0.243137255   0 0 0 0 0.250980392   0 0 0 0 0.325490196  0 0 0 0.116762908 0" type="matrix" in="shadowBlurOuter1"></feColorMatrix>
        </filter>
    </defs>
    <g id="Page-3" stroke="none" stroke-width="1" fill="none" fill-rule="evenodd">
        <g id="main" transform="translate(-804.000000, -4831.000000)">
            <g id="Advance-yourself-" transform="translate(-210.000000, 4363.000000)">
                <g id="tags-search">
                    <g id="teadership" transform="translate(1014.000000, 172.000000)">
                        <g id="waves" transform="translate(-488.000000, 296.000000)">
                            <path d="M556.641889,275.172984 C593.733644,275.172984 610.368613,243.591118 645.408226,266.824018 C680.44784,290.056919 704.804431,294.726158 726.560518,286.84562 C748.316606,278.965083 801.210629,243.890897 840.70983,278.965083 C880.20903,314.039268 952.687146,255.368787 993.531302,286.84562 C1034.37546,318.322453 1112.74465,303.520889 1116.92109,303.520889 C1121.09752,303.520889 1116.92109,331.201636 1116.92109,331.201636 L1120.10651,336.972389 C1120.10651,336.972389 1136.38754,456.959079 1136.38754,459.582148 C1136.38754,462.205218 593.733644,476.444737 593.733644,476.444737 L1.38084459,336.972389 C1.38084459,336.972389 130.667097,325.80967 244.151929,307.957455 C308.883651,297.774555 310.135865,290.637719 378.60976,278.965083 C447.083656,267.292446 467.003335,241.558526 487.753,241.558526 C508.502665,241.558526 531.74229,275.172984 556.641889,275.172984 Z" id="Path-5" fill="#FFD70B" style="mix-blend-mode: multiply;"></path>
                            <path d="M553.468885,297.167629 C618.102899,297.167629 689.59481,245.626957 721.602681,255.445307 C753.610552,265.263658 758.58397,287.928997 786.091782,274.2086 C862.43454,236.130218 843.752414,-1.00663072e-13 873.631932,0 C903.51145,1.00132335e-13 888.748032,264.526741 973.498032,274.2086 C1077.94726,286.140903 1071.98973,216.492713 1116.67328,264.526741 C1161.35684,312.560769 1241.11279,303.554389 1241.11279,303.554389 L1149.17685,391.891968 L738.243942,397.596009 C738.243942,397.596009 292.162027,420.85172 150.925378,397.596009 C9.68872839,374.340298 88.6763818,332.027067 253.428724,324.557187 C418.181067,317.087308 425.650947,264.30375 453.455498,264.526741 C481.26005,264.749732 488.834871,297.167629 553.468885,297.167629 Z" id="Path-6" fill="#FFAD0B" opacity="0.569236866" style="mix-blend-mode: multiply;"></path>
                            <g id="Path-4" opacity="0.541213768" style="mix-blend-mode: multiply;">
                                <use fill="black" fill-opacity="1" filter="url(#filter-2)" xlink:href="#path-1"></use>
                                <use fill="#FF540B" fill-rule="evenodd" xlink:href="#path-1"></use>
                            </g>
                        </g>
                    </g>
                </g>
            </g>
        </g>
    </g>
</svg>